# Blender v3.5.1 OBJ File: 'basePlates2.blend'
# www.blender.org
mtllib tunnel.mtl
o Cube_Cube.004
v -4.000000 -0.937560 0.937560
v -4.000000 0.937560 0.937560
v -4.000000 -0.937560 -0.937560
v -4.000000 0.937560 -0.937560
v 4.000000 -0.937560 0.937560
v 4.000000 0.937560 0.937560
v 4.000000 -0.937560 -0.937560
v 4.000000 0.937560 -0.937560
v -4.000000 -0.924301 0.924301
v -4.000000 0.924301 0.924301
v -4.000000 -0.924301 -0.924301
v -4.000000 0.924301 -0.924301
v 4.000000 -0.924301 0.924301
v 4.000000 0.924301 0.924301
v 4.000000 -0.924301 -0.924301
v 4.000000 0.924301 -0.924301
vt 0.000000 0.000000
vt 0.000000 1.000000
vt 1.000000 1.000000
vt 1.000000 0.000000
vt 1.000000 0.000000
vt 1.000000 1.000000
vt 0.000000 1.000000
vt 0.000000 0.000000
vt 0.000000 1.000000
vt 1.000000 1.000000
vt 0.000000 0.000000
vt 1.000000 0.000000
vt 0.000000 0.007071
vt 1.000000 0.007071
vt 1.000000 0.992929
vt 0.000000 0.992929
vt 1.000000 0.007071
vt 0.000000 0.007071
vt 0.000000 0.992929
vt 1.000000 0.992929
vt 0.000000 0.992929
vt 1.000000 0.992929
vt 1.000000 0.007071
vt 0.000000 0.007071
vt 1.000000 0.000000
vt 0.007071 0.007071
vt 0.992929 0.007071
vt 0.007071 0.992929
vt 1.000000 1.000000
vt 0.992929 0.992929
vt 0.992929 0.992929
vt 0.992929 0.007071
vt 0.000000 0.000000
vt 0.007071 0.007071
vt 0.000000 1.000000
vt 0.007071 0.992929
vn 0.0000 0.0000 -1.0000
vn 0.0000 0.0000 1.0000
vn 0.0000 -1.0000 0.0000
vn 0.0000 1.0000 0.0000
vn -1.0000 0.0000 0.0000
vn 1.0000 0.0000 0.0000
usemtl None
s off
f 3/1/1 4/2/1 8/3/1 7/4/1
f 5/5/2 6/6/2 2/7/2 1/8/2
f 3/9/3 7/10/3 5/5/3 1/8/3
f 8/3/4 4/2/4 2/11/4 6/12/4
f 11/13/2 15/14/2 16/15/2 12/16/2
f 13/17/1 9/18/1 10/19/1 14/20/1
f 11/21/4 9/18/4 13/17/4 15/22/4
f 16/15/3 14/23/3 10/24/3 12/16/3
f 3/25/5 1/8/5 9/26/5 11/27/5
f 1/8/5 2/7/5 10/28/5 9/26/5
f 2/7/5 4/29/5 12/30/5 10/28/5
f 4/29/5 3/25/5 11/27/5 12/30/5
f 7/4/6 8/3/6 16/31/6 15/32/6
f 5/33/6 7/4/6 15/32/6 13/34/6
f 8/3/6 6/35/6 14/36/6 16/31/6
f 6/35/6 5/33/6 13/34/6 14/36/6
